<?xml version="1.0" standalone="no"?>
<!DOCTYPE svg PUBLIC "-//W3C//DTD SVG 20010904//EN"
 "http://www.w3.org/TR/2001/REC-SVG-20010904/DTD/svg10.dtd">
<svg version="1.0" xmlns="http://www.w3.org/2000/svg"
 width="500.000000pt" height="500.000000pt" viewBox="0 0 500.000000 500.000000"
 preserveAspectRatio="xMidYMid meet">
<metadata>
Created by potrace 1.10, written by Peter Selinger 2001-2011
</metadata>
<g transform="translate(0.000000,500.000000) scale(0.100000,-0.100000)"
fill="#d1dae6" stroke="none">
<path d="M3250 4366 c0 -12 -31 -153 -36 -166 -14 -32 -13 -60 2 -60 16 0 17
1 35 85 7 33 15 64 18 70 2 5 6 24 8 42 3 24 0 33 -12 33 -8 0 -15 -2 -15 -4z"/>
<path d="M2947 4274 c-5 -6 51 -115 85 -165 13 -20 17 -21 22 -8 4 9 -10 44
-34 85 -22 38 -40 74 -40 81 0 13 -22 18 -33 7z"/>
<path d="M3413 4092 c-61 -41 -80 -59 -72 -68 8 -10 30 1 91 44 78 55 104 83
76 81 -7 0 -50 -26 -95 -57z"/>
<path d="M2750 3892 c0 -201 3 -237 42 -529 l22 -163 43 0 c50 0 43 -20 73
209 30 228 40 362 40 534 l0 147 -110 0 -110 0 0 -198z m194 150 c9 -32 -5
-418 -19 -481 -2 -13 -7 -48 -10 -78 -7 -70 -8 -77 -20 -85 -6 -5 -5 -8 3 -8
8 0 10 -5 5 -12 -4 -7 -6 -24 -4 -37 1 -13 -2 -21 -7 -17 -5 3 -9 -5 -9 -17
-1 -62 -3 -67 -25 -67 -19 0 -20 -2 -8 -11 13 -9 13 -10 0 -6 -9 2 -18 22 -22
48 -14 83 -25 184 -24 216 1 17 -2 29 -6 27 -4 -3 -6 4 -6 13 1 16 -5 109 -18
266 -3 42 -1 57 8 57 9 0 9 3 2 8 -6 4 -10 47 -10 102 l-1 95 41 5 c67 8 125
0 130 -18z"/>
<path d="M2811 3574 c0 -11 3 -14 6 -6 3 7 2 16 -1 19 -3 4 -6 -2 -5 -13z"/>
<path d="M3081 4030 c-16 -17 -31 -43 -33 -58 -2 -18 -10 -28 -23 -30 -19 -3
-20 -11 -22 -135 -2 -73 -7 -166 -13 -207 -5 -41 -17 -131 -25 -200 -16 -131
-22 -174 -31 -201 -5 -19 30 -28 266 -73 74 -14 167 -32 205 -40 39 -7 73 -11
77 -7 3 3 9 23 13 43 6 31 3 41 -19 63 -55 55 -60 75 -67 290 -7 211 -14 245
-65 332 -13 23 -40 54 -59 69 -31 24 -35 31 -29 59 18 98 -105 165 -175 95z
m92 3 c-7 -2 -19 -2 -25 0 -7 3 -2 5 12 5 14 0 19 -2 13 -5z m5 -39 c25 -17
32 -70 8 -61 -8 3 -31 9 -50 13 -20 3 -36 12 -36 20 0 12 36 44 50 44 3 0 16
-7 28 -16z m42 -5 c0 -6 -4 -7 -10 -4 -5 3 -10 11 -10 16 0 6 5 7 10 4 6 -3
10 -11 10 -16z m-80 -68 c27 -7 54 -10 60 -6 14 8 121 -106 115 -123 -3 -7 -1
-11 4 -8 14 9 36 -34 49 -94 13 -62 18 -212 8 -228 -4 -6 -4 -21 -2 -34 3 -13
8 -50 11 -83 8 -78 24 -122 58 -159 46 -51 31 -91 -29 -74 -19 5 -39 6 -44 3
-6 -3 -10 -2 -10 2 0 5 -12 10 -27 11 -16 1 -71 11 -123 22 -96 20 -118 24
-197 36 -41 6 -43 8 -43 40 0 18 4 35 9 38 4 3 7 22 6 43 -1 21 4 64 11 95 8
31 13 72 12 91 -1 19 2 39 6 45 4 7 3 12 -3 12 -7 0 -7 8 -2 23 10 25 19 125
25 257 4 84 12 110 32 110 8 0 11 7 8 18 -3 11 -1 9 6 -4 7 -13 30 -25 60 -33z"/>
<path d="M2189 4022 c-32 -29 -34 -34 -37 -111 -3 -52 0 -81 6 -81 6 0 13 4
17 9 11 19 95 24 136 8 l39 -15 0 76 c0 96 -22 130 -86 139 -36 5 -46 1 -75
-25z m111 -14 c11 -12 21 -29 22 -37 4 -46 5 -77 2 -86 -3 -6 -34 -9 -72 -9
l-67 2 -3 50 c-3 43 1 54 23 76 32 32 67 33 95 4z"/>
<path d="M2180 3804 c-14 -9 -30 -24 -37 -32 -6 -8 -38 -20 -70 -27 -32 -7
-130 -36 -218 -65 -243 -79 -388 -81 -397 -4 -4 35 -31 53 -55 38 -20 -12 -33
-63 -21 -79 5 -5 18 -23 30 -39 47 -62 142 -75 388 -52 96 9 211 21 254 27 70
9 80 9 89 -6 12 -23 68 -45 112 -45 47 0 88 22 121 65 20 26 34 35 56 35 16 0
48 4 71 9 23 5 74 14 112 21 111 19 105 15 105 74 l0 53 -81 7 c-44 4 -127 6
-184 5 -76 -2 -108 1 -120 11 -27 22 -125 25 -155 4z m145 -28 c14 -9 73 -13
187 -13 91 0 171 -3 176 -7 17 -10 -2 -69 -23 -72 -11 -2 -36 -6 -55 -10 -19
-4 -46 -8 -60 -10 -121 -15 -160 -28 -197 -64 -66 -64 -123 -69 -194 -18 -29
22 -64 23 -164 9 -224 -33 -445 -43 -497 -22 -16 6 -28 8 -28 5 0 -3 -12 7
-26 21 -28 28 -37 59 -28 90 6 16 8 14 18 -15 6 -20 25 -44 45 -57 31 -21 43
-23 110 -19 42 3 87 8 101 11 14 3 35 7 46 9 12 2 62 18 111 35 50 17 98 31
107 31 9 0 16 4 16 9 0 9 57 27 74 23 17 -5 82 21 116 47 19 14 41 29 50 33
20 9 90 -1 115 -16z"/>
<path d="M2240 3757 c0 -6 -3 -8 -6 -5 -9 9 -64 -46 -68 -69 -6 -27 46 -89 79
-95 14 -3 25 -1 25 3 0 5 6 9 13 9 17 0 50 46 52 73 1 11 -8 31 -21 43 -12 13
-17 25 -12 26 6 2 -6 9 -26 15 -25 8 -36 8 -36 0z m52 -44 c24 -21 23 -58 -2
-83 -26 -26 -54 -25 -80 2 -24 26 -25 46 -4 76 18 26 60 29 86 5z"/>
<path d="M2705 3609 c-20 -90 -127 -239 -171 -239 -26 0 -50 -38 -46 -74 l4
-34 116 -22 c65 -13 128 -27 141 -32 13 -5 25 -7 27 -5 2 1 -4 41 -12 87 -8
47 -13 93 -10 102 2 9 0 18 -5 20 -5 2 -12 54 -16 116 -6 112 -15 139 -28 81z
m10 -156 c4 -38 9 -79 11 -93 3 -14 7 -46 11 -72 l6 -48 -49 6 c-26 3 -57 10
-69 16 -11 6 -21 10 -23 9 -1 -2 -20 0 -42 4 -36 6 -40 10 -40 35 0 21 6 31
24 37 35 12 110 85 125 121 7 18 17 29 22 26 5 -3 6 2 3 10 -3 9 -2 16 4 16 6
0 13 -30 17 -67z"/>
<path d="M2150 3078 l0 -443 72 -35 c39 -19 86 -44 103 -56 l32 -21 -2 141
c-2 78 -3 302 -4 499 l-1 357 -26 -17 c-16 -10 -46 -17 -74 -17 -28 0 -58 7
-74 17 l-26 17 0 -442z m172 369 c-7 -8 -7 -18 -1 -27 11 -18 10 -456 -2 -487
-5 -15 -5 -23 2 -23 6 0 9 -60 8 -172 -1 -95 -4 -167 -6 -160 -3 6 -9 12 -15
12 -14 0 -78 30 -110 52 -23 16 -26 23 -23 65 4 48 7 673 4 689 -1 5 -1 24 0
41 1 32 2 33 39 27 20 -3 39 -7 40 -9 2 -2 18 3 35 10 33 14 47 5 29 -18z"/>
<path d="M1471 3446 c-11 -30 -36 -103 -56 -162 -19 -60 -40 -118 -45 -129 -5
-11 -22 -60 -39 -110 -16 -49 -62 -182 -101 -295 -40 -113 -74 -215 -77 -227
-3 -13 -12 -23 -19 -23 -21 0 -17 -21 12 -66 123 -190 627 -198 767 -12 30 40
39 83 17 83 -8 0 -16 10 -18 23 -3 18 -6 21 -17 12 -9 -7 -12 -23 -8 -43 4
-25 -1 -38 -22 -61 -23 -25 -32 -28 -69 -24 -28 4 -64 19 -104 47 -47 32 -70
41 -103 41 -36 0 -41 2 -36 20 3 13 -1 24 -14 30 -17 9 -19 7 -19 -20 l0 -30
-171 0 c-159 0 -171 1 -164 18 3 9 20 58 37 107 17 50 57 167 90 260 33 94 66
190 73 215 8 25 40 121 72 215 l58 170 5 -409 c4 -337 7 -406 18 -393 10 12
13 100 12 408 0 254 3 390 9 384 6 -6 17 -35 25 -65 22 -80 140 -427 148 -435
3 -4 5 15 4 42 -2 28 -33 139 -76 266 l-73 217 -48 0 -48 0 -20 -54z m-111
-966 c85 1 164 1 175 2 64 2 128 -22 163 -62 12 -13 13 -13 6 0 -6 13 -4 12
12 -1 10 -9 34 -21 52 -29 17 -7 32 -16 32 -20 0 -9 -73 -40 -109 -46 -12 -3
-30 1 -39 8 -13 11 -14 11 -7 -1 6 -11 3 -13 -13 -9 -12 4 -20 2 -16 -3 3 -5
-4 -9 -16 -9 -13 0 -19 4 -14 11 4 8 0 8 -15 0 -25 -14 -93 -11 -103 3 -5 8
-8 7 -8 0 0 -8 -11 -9 -37 -4 -20 5 -41 7 -45 4 -4 -3 -8 0 -8 7 0 7 -3 10 -6
6 -9 -8 -67 14 -82 32 -8 9 -10 10 -6 2 4 -9 2 -12 -7 -9 -8 3 -13 10 -12 16
1 5 -4 13 -13 16 -10 4 -13 2 -7 -7 4 -6 -11 3 -34 20 -56 45 -67 87 -20 77
12 -3 92 -4 177 -4z m480 -94 c0 -2 -7 -6 -15 -10 -8 -3 -15 -1 -15 4 0 6 7
10 15 10 8 0 15 -2 15 -4z"/>
<path d="M2735 3167 c-3 -6 -14 -39 -24 -72 -81 -247 -141 -410 -152 -410 -23
0 -20 -21 12 -68 75 -113 314 -168 513 -117 131 33 207 89 231 168 5 17 2 22
-12 22 -13 0 -23 14 -35 53 -17 55 -104 311 -114 337 -5 11 -8 10 -15 -8 -7
-18 5 -64 51 -200 33 -97 60 -180 60 -184 0 -5 -68 -7 -152 -6 l-152 3 3 58
c2 57 2 58 -19 47 -18 -10 -21 -19 -19 -58 l3 -47 -152 -3 c-127 -2 -152 0
-152 12 0 8 18 65 40 128 23 62 56 158 74 213 19 55 37 107 41 116 4 10 0 19
-10 23 -9 3 -18 0 -20 -7z m32 -507 c82 2 157 2 168 2 146 -5 310 -1 321 9 11
9 15 7 21 -7 4 -10 2 -19 -5 -22 -7 -2 -10 -8 -6 -13 3 -5 0 -9 -5 -9 -6 0
-11 -6 -11 -13 0 -16 -99 -68 -133 -70 -14 -1 -23 -5 -20 -9 2 -5 -3 -8 -11
-8 -9 0 -16 5 -16 11 0 6 -7 4 -15 -4 -18 -19 -125 -31 -191 -23 -64 9 -149
33 -194 56 -36 19 -108 90 -90 90 5 0 9 3 9 8 -3 19 2 23 16 12 10 -8 57 -11
162 -10z"/>
<path d="M2620 2606 c0 -2 8 -10 18 -17 15 -13 16 -12 3 4 -13 16 -21 21 -21
13z"/>
<path d="M2837 3153 c-2 -4 4 -27 15 -50 13 -29 25 -43 38 -43 11 0 35 -13 53
-30 45 -39 79 -36 129 11 60 57 54 62 -81 87 -66 12 -126 25 -134 28 -8 3 -17
2 -20 -3z m152 -49 c82 -9 93 -18 58 -49 -34 -30 -54 -31 -81 -6 -12 10 -34
23 -51 28 -39 13 -49 49 -11 39 14 -3 52 -9 85 -12z"/>
<path d="M1779 3039 c-11 -11 -19 -26 -17 -32 7 -21 250 -167 278 -167 23 0
40 20 40 46 0 17 -16 31 -67 60 -38 20 -86 49 -108 64 -36 23 -89 50 -100 50
-3 0 -14 -9 -26 -21z m66 -21 c16 -7 24 -17 20 -26 -4 -12 -2 -12 8 -4 10 9
18 7 33 -6 10 -9 39 -27 64 -40 56 -28 80 -46 80 -61 0 -19 -33 -11 -80 20
-25 16 -73 43 -107 60 -45 23 -61 36 -60 50 1 22 7 23 42 7z"/>
<path d="M2815 3016 c-76 -33 -88 -135 -21 -188 13 -11 39 -18 67 -18 37 0 50
5 71 28 34 35 43 72 28 116 -19 57 -88 87 -145 62z m49 -28 c-5 -8 -1 -7 10 2
17 13 21 12 43 -14 28 -33 28 -76 0 -116 -9 -13 -17 -21 -17 -17 0 5 -6 5 -12
0 -43 -26 -95 2 -108 60 -7 33 -5 42 17 67 25 30 83 45 67 18z"/>
<path d="M1749 2944 c0 -5 -2 -18 -3 -30 -3 -28 -92 -174 -119 -197 -26 -20
-37 -11 120 -101 61 -35 114 -62 117 -58 3 3 6 13 6 23 0 25 87 170 117 195
l25 21 -23 17 c-29 21 -209 126 -226 133 -7 3 -13 1 -14 -3z m107 -79 c88 -50
124 -75 106 -75 -7 0 -12 -5 -12 -10 0 -6 -9 -20 -20 -32 -11 -12 -25 -34 -32
-49 -7 -15 -16 -25 -20 -23 -5 3 -7 2 -6 -3 4 -11 -24 -83 -31 -83 -3 0 -33
16 -66 36 -33 20 -70 40 -83 45 -27 10 -40 38 -23 49 7 4 12 9 11 11 -1 2 2
12 6 22 5 15 9 16 16 5 7 -10 8 -9 4 4 -7 22 32 90 47 81 5 -3 7 -1 3 5 -5 8
11 62 19 62 1 0 37 -20 81 -45z"/>
<path d="M1715 2680 c-3 -5 -1 -10 4 -10 6 0 11 5 11 10 0 6 -2 10 -4 10 -3 0
-8 -4 -11 -10z"/>
<path d="M1956 2670 c-39 -66 -38 -85 3 -77 28 6 49 -6 341 -198 85 -56 197
-129 249 -163 52 -34 102 -62 110 -62 19 0 74 87 67 106 -3 7 -29 25 -58 40
-29 14 -82 43 -118 64 -76 43 -161 90 -245 134 -227 120 -292 160 -288 176 2
9 -2 22 -10 29 -13 10 -21 2 -51 -49z m56 -19 c8 -11 20 -21 28 -23 8 -2 19
-6 25 -11 40 -30 84 -54 89 -50 2 3 20 -5 38 -18 18 -13 69 -42 113 -65 175
-90 210 -109 217 -119 4 -5 8 -6 8 -2 0 10 59 -30 78 -53 8 -8 11 -10 8 -3 -5
8 0 8 18 0 13 -7 22 -15 20 -19 -3 -4 2 -5 10 -2 9 3 16 1 16 -6 0 -6 5 -8 10
-5 6 3 10 -1 10 -9 0 -9 -5 -16 -11 -16 -6 0 -9 -6 -6 -13 3 -7 -4 -19 -15
-26 -16 -10 -23 -10 -37 3 -10 9 -21 13 -24 9 -4 -3 -7 -2 -7 4 0 6 -8 13 -17
17 -27 9 -87 46 -98 60 -6 7 -20 16 -32 20 -13 4 -29 13 -35 19 -27 27 -105
78 -145 96 -11 5 -24 15 -28 21 -3 5 -25 20 -48 32 -54 27 -98 64 -89 73 4 5
0 6 -9 2 -9 -3 -25 2 -35 11 -11 10 -38 26 -61 36 -37 16 -40 21 -30 37 15 24
22 24 39 0z"/>
<path d="M1985 2649 c-4 -6 -5 -12 -2 -15 2 -3 7 2 10 11 7 17 1 20 -8 4z"/>
<path d="M2500 2310 c-9 -6 -10 -10 -3 -10 6 0 15 5 18 10 8 12 4 12 -15 0z"/>
<path d="M1552 2648 c-16 -16 -15 -53 1 -65 6 -6 44 -27 82 -48 39 -21 83 -47
99 -58 54 -38 131 -20 113 26 -6 16 -248 157 -270 157 -7 0 -18 -5 -25 -12z
m78 -39 c3 -3 25 -15 50 -28 92 -45 137 -77 137 -95 0 -20 2 -20 -63 9 -34 16
-54 31 -55 42 0 10 -3 13 -5 6 -6 -14 -102 36 -116 61 -14 25 -1 38 25 23 12
-6 24 -15 27 -18z"/>
<path d="M2140 2410 c0 -84 -44 -143 -113 -154 -23 -4 -63 -14 -89 -22 -40
-13 -48 -20 -48 -40 0 -14 4 -22 10 -19 17 11 48 -14 61 -50 l13 -35 343 0
c338 0 343 0 343 20 0 13 -10 24 -27 31 -16 6 -65 35 -109 65 -45 30 -88 54
-97 54 -9 0 -20 7 -24 15 -7 12 -247 175 -259 175 -2 0 -4 -18 -4 -40z m52
-20 c6 0 27 -13 48 -30 21 -16 43 -30 49 -30 6 0 11 -4 11 -10 0 -5 17 -17 38
-26 20 -10 44 -24 52 -32 8 -7 30 -22 48 -33 20 -11 30 -24 26 -31 -4 -7 -3
-8 4 -4 11 7 86 -36 110 -64 8 -8 11 -9 7 -3 -4 9 -1 11 9 7 46 -18 -12 -21
-294 -20 -282 1 -310 3 -310 18 0 9 -14 28 -32 43 -25 21 -29 28 -17 36 9 5
15 4 18 -2 2 -8 6 -8 10 0 4 6 16 13 27 15 62 12 105 29 117 46 8 11 17 17 21
12 4 -4 7 -2 5 3 -1 6 1 17 4 25 3 8 11 35 18 60 6 25 14 39 16 33 3 -7 9 -13
15 -13z"/>
<path d="M2731 2199 c-32 -52 -33 -69 -3 -69 22 0 74 82 66 104 -11 28 -30 17
-63 -35z"/>
<path d="M1226 2224 c-9 -8 -16 -22 -16 -30 0 -12 50 -14 325 -14 342 0 353 2
307 43 -16 15 -53 17 -310 17 -251 0 -293 -2 -306 -16z m587 -14 c13 -5 -93
-8 -260 -6 -155 1 -285 4 -288 8 -10 10 523 8 548 -2z"/>
<path d="M1142 2128 c-5 -7 -12 -21 -14 -31 -3 -16 21 -17 405 -20 356 -2 407
0 407 13 0 8 -7 23 -14 33 -12 16 -43 17 -393 17 -292 0 -383 -3 -391 -12z
m763 -18 c8 -13 -715 -13 -735 0 -10 6 116 9 357 9 229 0 374 -3 378 -9z"/>
<path d="M1802 1958 c-31 -15 -39 -54 -17 -78 25 -27 90 -27 105 -1 15 29 12
56 -8 74 -21 19 -47 21 -80 5z m62 -30 c-3 -4 0 -8 6 -8 8 0 8 -6 0 -20 -11
-21 -50 -28 -50 -9 0 5 -4 8 -9 5 -6 -4 -9 32 -2 41 4 7 59 -2 55 -9z"/>
<path d="M2380 1730 l0 -200 50 0 50 0 0 200 0 200 -50 0 -50 0 0 -200z m77 0
c-1 -154 -2 -169 -19 -173 -10 -3 -21 -1 -24 4 -7 13 -7 304 1 328 4 13 12 17
25 14 17 -5 18 -16 17 -173z"/>
<path d="M854 1860 l0 -40 68 0 68 0 0 -93 c0 -59 -4 -97 -12 -105 -19 -19
-65 -14 -82 9 -14 21 -15 21 -44 -12 -23 -26 -28 -37 -19 -47 22 -27 68 -42
128 -42 56 0 64 3 95 34 23 23 34 43 34 62 0 16 2 84 4 152 l3 122 -121 0
-121 0 -1 -40z m214 -114 c3 -142 -5 -167 -62 -186 -65 -21 -161 5 -135 36 10
12 15 12 34 0 26 -17 68 -10 92 16 14 16 17 36 17 114 -1 54 -6 100 -13 108
-7 8 -32 14 -63 15 -28 0 -54 3 -57 6 -15 15 32 25 104 21 l80 -3 3 -127z"/>
<path d="M2040 1798 c-41 -97 -108 -244 -117 -260 -2 -5 20 -8 51 -8 53 0 55
1 66 35 l12 35 83 0 84 0 12 -35 c13 -34 14 -35 67 -35 65 0 68 -19 -31 200
l-75 165 -53 3 -54 3 -45 -103z m135 68 c8 -7 11 -16 8 -19 -3 -4 3 -19 13
-34 27 -41 44 -73 37 -73 -3 0 0 -6 6 -14 6 -7 8 -21 5 -30 -4 -11 -2 -16 6
-14 7 2 16 -9 20 -24 5 -15 18 -43 29 -61 11 -19 18 -36 16 -39 -11 -11 -55 5
-60 22 -11 34 -36 44 -114 47 -82 3 -76 5 -130 -54 -11 -13 -27 -20 -34 -17
-12 4 -12 11 2 40 8 18 19 34 23 34 4 0 5 7 2 15 -4 8 -1 15 6 15 6 0 8 4 5
10 -3 5 4 29 17 52 12 24 21 46 20 51 -1 4 3 7 8 7 6 0 10 5 10 12 0 6 8 29
17 50 14 31 22 38 46 38 15 0 35 -6 42 -14z"/>
<path d="M2115 1790 c-14 -22 -25 -44 -25 -50 0 -5 -4 -10 -8 -10 -13 0 -8
-46 7 -64 11 -13 23 -16 55 -11 23 4 45 11 50 16 11 10 16 49 7 49 -3 0 -11
11 -18 25 -6 15 -7 22 -1 19 6 -4 2 5 -7 20 -10 14 -22 26 -27 26 -5 0 -6 5
-3 10 3 6 4 10 1 10 -3 0 -17 -18 -31 -40z m45 -45 c7 -22 17 -46 23 -52 7
-10 -2 -13 -42 -13 -28 0 -51 1 -51 3 0 1 7 20 16 42 8 22 17 48 21 58 7 24
17 12 33 -38z"/>
<path d="M3160 1892 c-6 -2 -10 -22 -10 -44 0 -35 -2 -39 -20 -33 -18 6 -20 2
-20 -34 0 -34 3 -41 19 -41 17 0 19 -9 23 -81 3 -74 6 -83 31 -105 23 -19 39
-24 86 -24 32 0 60 3 63 6 3 3 1 21 -5 40 -8 26 -15 33 -28 29 -30 -10 -49 22
-49 81 l0 54 35 0 c34 0 35 1 35 41 0 40 -1 40 -32 37 -32 -3 -33 -2 -33 36
l0 39 -43 1 c-23 0 -47 0 -52 -2z m50 -34 c0 -9 4 -8 10 2 7 12 10 8 10 -15 0
-27 32 -63 51 -58 3 1 6 -5 6 -13 0 -7 -8 -14 -17 -14 -29 0 -40 -23 -40 -82
0 -48 4 -61 25 -83 14 -14 30 -25 35 -25 6 0 10 -3 10 -7 0 -5 -14 -9 -31 -10
-46 -3 -89 31 -90 70 -1 84 -5 115 -18 130 -7 9 -18 14 -23 11 -6 -4 -5 3 1
14 6 12 15 23 20 27 5 3 12 19 16 35 6 29 35 43 35 18z"/>
<path d="M1695 1823 c-11 -3 -28 -12 -37 -21 -16 -14 -18 -14 -18 1 0 14 -10
17 -50 17 l-50 0 0 -145 0 -145 53 0 52 0 0 91 c0 101 10 119 68 119 22 0 28
4 23 16 -3 9 -6 29 -6 45 0 16 -3 28 -7 28 -5 -1 -17 -4 -28 -6z m-75 -32 c0
-5 15 -11 34 -13 19 -2 33 -1 30 3 -2 4 3 9 11 13 32 12 13 -24 -19 -38 -46
-19 -59 -47 -59 -127 l0 -68 -28 1 c-21 1 -26 4 -19 13 5 6 7 15 4 18 -5 5 -9
151 -5 192 1 13 51 18 51 6z"/>
<path d="M2633 1819 c-105 -30 -138 -177 -57 -248 42 -38 68 -45 144 -39 39 3
66 11 80 23 l20 18 -26 28 c-24 25 -28 26 -52 13 -32 -17 -81 -10 -99 14 -7 9
-13 18 -13 21 0 3 47 4 105 3 l105 -4 0 44 c0 60 -42 111 -104 127 -51 13 -59
13 -103 0z m87 -25 c0 11 64 -26 75 -43 18 -29 22 -56 11 -66 -17 -16 -41 -11
-38 7 4 25 -16 68 -32 68 -7 0 -19 7 -26 15 -10 13 -17 12 -51 -5 -45 -23 -53
-25 -43 -7 5 8 3 8 -9 -2 -16 -13 -14 -36 3 -26 4 3 4 -11 0 -29 -6 -29 -5
-34 9 -29 14 6 14 4 -1 -13 -17 -19 -16 -22 10 -52 31 -37 64 -45 109 -26 38
16 58 0 27 -23 -22 -16 -119 -12 -155 7 -30 17 -60 90 -53 129 4 17 11 31 16
31 5 0 7 4 4 9 -11 16 43 54 79 55 19 1 35 5 35 10 0 5 7 3 15 -4 8 -7 15 -10
15 -6z m22 -68 c15 -22 7 -26 -52 -26 -59 0 -67 4 -52 27 21 33 82 32 104 -1z"/>
<path d="M2890 1678 l0 -148 53 0 52 0 -3 84 c-4 76 -2 85 19 105 12 11 33 21
46 21 21 0 23 5 23 46 0 45 0 46 -27 39 -16 -3 -36 -14 -45 -22 -16 -15 -18
-15 -18 -1 0 12 -13 17 -50 20 l-50 3 0 -147z m86 108 c16 -12 22 -13 40 -1
13 8 26 10 35 5 15 -10 16 -9 -33 -39 -21 -12 -38 -27 -38 -32 0 -6 -4 -8 -9
-5 -5 4 -7 -3 -4 -14 3 -11 -1 -28 -8 -37 -10 -12 -10 -15 -1 -9 9 5 12 -4 11
-38 -3 -57 -8 -66 -36 -55 -16 6 -23 17 -23 34 0 15 4 24 9 20 6 -3 6 8 1 27
-10 37 -7 128 4 146 10 16 28 15 52 -2z"/>
<path d="M3455 1820 c-118 -36 -135 -214 -25 -270 53 -27 143 -27 188 0 l33
20 -30 29 c-29 28 -32 29 -60 15 -17 -8 -40 -12 -55 -8 -25 6 -67 43 -50 45 5
0 52 0 105 -1 119 -1 124 5 87 102 -20 54 -123 89 -193 68z m103 -26 c39 -7
71 -43 76 -86 4 -30 2 -36 -12 -33 -9 2 -21 4 -25 4 -5 1 -7 13 -5 28 2 20 -5
35 -25 55 -35 33 -70 29 -111 -12 -28 -27 -28 -30 -13 -53 12 -18 13 -27 5
-35 -13 -13 -19 -54 -7 -46 4 2 10 0 14 -5 16 -27 105 -53 105 -31 0 13 37 13
45 0 3 -5 -7 -13 -22 -17 -40 -10 -127 -6 -131 6 -2 6 -8 9 -13 5 -5 -3 -9 2
-9 11 0 9 -4 14 -9 11 -14 -9 -29 16 -36 61 -7 50 15 107 49 125 11 6 21 10
21 9 0 -1 7 0 15 3 37 12 45 13 53 9 4 -2 20 -7 35 -9z m-8 -54 c32 -32 24
-40 -40 -40 -33 0 -60 4 -60 9 0 12 51 50 68 51 6 0 21 -9 32 -20z"/>
<path d="M1162 1713 c4 -117 16 -150 64 -171 42 -20 105 -15 132 11 l25 22 -6
-22 c-5 -22 -2 -23 44 -23 l49 0 0 145 0 145 -50 0 -50 0 0 -83 c0 -97 -15
-130 -58 -125 -39 5 -53 40 -50 131 l3 77 -54 0 -53 0 4 -107z m69 78 c12 -2
9 -105 -4 -113 -9 -6 -9 -8 1 -8 7 0 10 -4 7 -10 -3 -5 -1 -10 4 -10 6 0 11
-7 11 -16 0 -25 30 -43 70 -44 49 0 64 27 70 125 5 82 6 83 48 76 9 -1 9 -188
-1 -197 -4 -4 -2 -13 4 -21 9 -10 6 -13 -18 -13 -16 0 -34 5 -39 10 -7 7 -22
6 -47 -5 -20 -8 -47 -13 -59 -11 -13 3 -26 5 -29 5 -14 2 -53 43 -56 59 -2 9
-5 53 -6 98 -3 85 -3 85 44 75z"/>
<path d="M1785 1675 l0 -145 53 0 52 0 0 145 0 145 -52 0 -53 0 0 -145z m70
115 c5 -8 8 -148 6 -217 -1 -7 -12 -13 -26 -13 l-26 0 2 113 c0 61 3 115 6
120 6 10 31 9 38 -3z"/>
<path d="M1880 1316 l0 -76 55 0 c43 0 55 3 55 16 0 12 -9 15 -37 12 l-38 -3
-1 60 c-1 47 -5 61 -18 63 -14 3 -16 -7 -16 -72z"/>
<path d="M2020 1315 c0 -60 3 -75 15 -75 12 0 15 15 15 75 0 60 -3 75 -15 75
-12 0 -15 -15 -15 -75z"/>
<path d="M2108 1315 c-3 -64 -1 -75 13 -75 10 0 19 11 23 30 3 17 9 30 14 30
4 0 16 -13 25 -30 11 -18 26 -30 39 -30 22 0 20 6 -27 58 l-20 24 33 29 c37
33 39 39 15 39 -10 0 -31 -16 -46 -35 -35 -44 -44 -44 -39 0 3 27 0 35 -11 35
-12 0 -16 -16 -19 -75z"/>
<path d="M2313 1373 c-3 -10 -17 -42 -30 -72 -27 -63 -27 -61 -8 -61 8 0 15 7
15 15 0 11 11 15 40 15 27 0 43 -5 46 -15 6 -14 34 -22 34 -9 0 3 -14 36 -32
75 -31 68 -53 86 -65 52z m47 -74 c0 -3 -11 -4 -24 -2 -22 5 -23 8 -13 30 l11
24 13 -23 c7 -13 12 -26 13 -29z"/>
<path d="M2456 1377 c-30 -22 -17 -60 24 -73 42 -14 54 -44 18 -44 -13 0 -30
6 -36 12 -10 10 -15 10 -22 -2 -12 -19 6 -30 51 -30 47 0 75 28 55 55 -8 11
-28 24 -45 30 -38 13 -36 30 4 29 17 0 33 5 37 10 17 25 -55 36 -86 13z"/>
<path d="M2592 1315 c2 -65 4 -75 20 -75 16 0 18 9 18 75 0 69 -2 75 -20 75
-19 0 -21 -5 -18 -75z"/>
</g>
</svg>
